<svg xmlns="http://www.w3.org/2000/svg" version="1.1" xmlns:xlink="http://www.w3.org/1999/xlink" xmlns:svgjs="http://svgjs.dev/svgjs" width="128" height="128" viewBox="0 0 128 128"><g transform="matrix(0.8046875,0,0,0.8046875,12.760752631578946,12.760752631578946)"><svg viewBox="0 0 95 95" data-background-color="#ffffff" preserveAspectRatio="xMidYMid meet" height="128" width="128" xmlns="http://www.w3.org/2000/svg" xmlns:xlink="http://www.w3.org/1999/xlink"><g id="tight-bounds" transform="matrix(1,0,0,1,-0.24049999999999727,-0.24049999999999727)"><svg viewBox="0 0 95.481 95.48099999999998" height="95.48099999999998" width="95.481"><g><svg viewBox="0 0 95.481 95.48099999999998" height="95.48099999999998" width="95.481"><g><svg viewBox="0 0 95.481 95.48099999999998" height="95.48099999999998" width="95.481"><g id="textblocktransform"><svg viewBox="0 0 95.481 95.48099999999998" height="95.48099999999998" width="95.481" id="textblock"><g><svg viewBox="0 0 95.481 95.48099999999998" height="95.48099999999998" width="95.481"><g><svg viewBox="0 0 95.481 95.48099999999998" height="95.48099999999998" width="95.481"><g><svg xmlns="http://www.w3.org/2000/svg" xmlns:xlink="http://www.w3.org/1999/xlink" version="1.1" x="0" y="0" viewBox="0.5 0.5 47 46.99999999999999" style="enable-background:new 0 0 48 48;" xml:space="preserve" height="95.48099999999998" width="95.481" class="icon-icon-0" data-fill-palette-color="accent" id="icon-0"><g fill="#ca3433" data-fill-palette-color="accent"><path d="M16.8 5.6c0-0.2 0.1-0.3 0.3-0.3h13.8c0.2 0 0.3 0.1 0.3 0.3v3.3H36V5.6c0-2.8-2.3-5.1-5.1-5.1H17.1c-2.8 0-5.1 2.3-5.1 5.1v3.3h4.8V5.6z" fill="#ca3433" data-fill-palette-color="accent"></path><path d="M45.1 12.7H2.9c-1.3 0-2.4 1.1-2.4 2.4v8h15.7c1.3 0 2.4 1.1 2.4 2.4 0 0.1 0 0.2 0 0.3 0 0.1 0 0.2 0 0.3 0 1 1.2 2.2 3 2.7v-0.1c0-1.3 1.1-2.4 2.4-2.4s2.4 1.1 2.4 2.4v0.1c1.8-0.5 3-1.7 3-2.7 0-0.1 0-0.2 0-0.3 0-0.1 0-0.2 0-0.3 0-1.3 1.1-2.4 2.4-2.4h15.7v-8C47.5 13.8 46.4 12.7 45.1 12.7z" fill="#ca3433" data-fill-palette-color="accent"></path><path d="M26.4 33.8v0.5c0 1.3-1.1 2.4-2.4 2.4s-2.4-1.1-2.4-2.4v-0.5c-3.8-0.7-6.7-2.9-7.6-5.8H0.5v17.1c0 1.3 1.1 2.4 2.4 2.4h42.2c1.3 0 2.4-1.1 2.4-2.4V28H34C33.1 30.9 30.2 33.1 26.4 33.8z" fill="#ca3433" data-fill-palette-color="accent"></path></g></svg></g></svg></g></svg></g></svg></g></svg></g></svg></g><defs></defs></svg><rect width="95.481" height="95.48099999999998" fill="none" stroke="none" visibility="hidden"></rect></g></svg></g></svg>