<svg xmlns="http://www.w3.org/2000/svg" version="1.1" xmlns:xlink="http://www.w3.org/1999/xlink" xmlns:svgjs="http://svgjs.dev/svgjs" width="2000" height="636" viewBox="0 0 2000 636"><g transform="matrix(1,0,0,1,-1.2121212121212466,-0.22526002537983913)"><svg viewBox="0 0 396 126" data-background-color="#ffffff" preserveAspectRatio="xMidYMid meet" height="636" width="2000" xmlns="http://www.w3.org/2000/svg" xmlns:xlink="http://www.w3.org/1999/xlink"><g id="tight-bounds" transform="matrix(1,0,0,1,0.2400000000000091,0.04462698616015359)"><svg viewBox="0 0 395.52 125.91066878256653" height="125.91066878256653" width="395.52"><g><svg viewBox="0 0 682.7085210114063 217.3348666669272" height="125.91066878256653" width="395.52"><g transform="matrix(1,0,0,1,287.18852101140635,34.693740174820675)"><svg viewBox="0 0 395.52 147.94738631728586" height="147.94738631728586" width="395.52"><g id="textblocktransform"><svg viewBox="0 0 395.52 147.94738631728586" height="147.94738631728586" width="395.52" id="textblock"><g><svg viewBox="0 0 395.52 147.94738631728586" height="147.94738631728586" width="395.52"><g transform="matrix(1,0,0,1,0,0)"><svg width="395.52" viewBox="-3.0478723404255317 -38.29228521192999 129.5969852297695 48.30228521193" height="147.94738631728586" data-palette-color="#ed2647"><g class="wordmark-text-0" data-fill-palette-color="primary" id="text-0"><path d="M4.05-3.96L3.91-3.49Q6.35-2.1 8.07-3.27 9.79-4.44 11.44-9 13.09-13.55 13.56-16.1 14.04-18.65 13.96-19.56 13.89-20.46 13.07-20.9 12.26-21.34 10.33-19.12 8.4-16.89 7.04-13.4 5.69-9.91 4.05-3.96L4.05-3.96ZM9.2-24.29L9.2-24.29 8.06-19.85 8.74-21Q9.79-22.75 11.15-24 12.5-25.24 13.35-25.24L13.35-25.24 13.45-25.24Q13.84-25.24 14.7-24.67 15.55-24.1 16.32-23.12 17.09-22.14 17.42-21.12 17.75-20.09 17.37-16.97 16.99-13.84 14.99-8.57 12.99-3.3 11.1-1.55 9.2 0.2 6.3 0.2L6.3 0.2Q4.64 0.2 3.15-0.71L3.15-0.71 0.71 8.91Q0.39 10.01-0.81 10.01L-0.81 10.01-1.71 10.01Q-2.51 10.01-2.83 9.56-3.15 9.11-3 8.4L-3 8.4 5.4-24.34Q5.69-25.39 6.74-25.39L6.74-25.39 8.2-25.39Q9.5-25.39 9.2-24.29ZM18.19-7.25L18.19-7.25Q18.41-13.94 21.53-19.92 24.66-25.9 29.49-25.81L29.49-25.81Q32-25.66 33.4-23.29L33.4-23.29Q34.45-21.66 34.25-17.75L34.25-17.75Q34.06-10.35 30.2-4.05L30.2-4.05Q27.54 0.56 23.04 0.39L23.04 0.39Q21.46 0.34 20.09-1L20.09-1Q18.04-2.95 18.19-7.25ZM26.71-5.25L26.71-5.25Q30.1-10.6 30.3-17.21L30.3-17.21Q30.34-20.14 29.99-21.14 29.64-22.14 28.51-22.17 27.39-22.19 26.46-21.12 25.53-20.04 24.66-18.14L24.66-18.14Q22.43-13.7 22.24-7.74L22.24-7.74Q22.14-3.25 23.8-3.1L23.8-3.1Q25.24-3.05 26.71-5.25ZM44.48-24.34L43.04-18.7Q44.62-21.29 45.98-23 47.33-24.71 47.96-25.13 48.58-25.56 50.14-25.56L50.14-25.56 50.63-25.56Q52.09-25.56 51.63-24.44L51.63-24.44Q51.39-23.85 50.41-22.97 49.43-22.09 47.76-19.97 46.09-17.85 46.09-17.21L46.09-17.21Q46.09-15.89 47.33-14.75L47.33-14.75Q47.63-14.5 47.5-14.22 47.38-13.94 46.99-13.84L46.99-13.84 45.09-13.5Q44.28-13.35 43.85-13.67 43.43-13.99 42.38-15.94L42.38-15.94 38.54-1.1Q38.23 0 37.03 0L37.03 0 35.59 0Q34.17 0 34.49-1.15L34.49-1.15 40.6-24.39Q40.84-25.39 41.99-25.39L41.99-25.39 43.53-25.39Q44.18-25.39 44.4-25.17 44.62-24.95 44.48-24.34L44.48-24.34ZM61.32-33.11L61.32-33.11 59.37-25.39 61.96-25.39Q63.05-25.39 62.71-24.29L62.71-24.29 62.37-23Q62-21.9 61.05-21.9L61.05-21.9 58.46-21.9 53.17-1.1Q52.87 0 51.65 0L51.65 0 50.72 0Q49.92 0 49.59-0.45 49.26-0.9 49.41-1.61L49.41-1.61 54.61-21.9 52.6-21.9Q51.6-21.9 51.97-23.1L51.97-23.1 52.36-24.44Q52.65-25.39 53.46-25.39L53.46-25.39 55.46-25.39 57.46-33.15Q57.76-34.25 58.95-34.25L58.95-34.25 60.22-34.25Q61.61-34.25 61.32-33.11ZM64.54 0L64.54 0 63.25 0Q62.64 0 62.33-0.33 62.03-0.66 62.12-1.15L62.12-1.15 67.59-21.9 64.78-21.9Q63.78-21.9 64.13-23.1L64.13-23.1 64.49-24.44Q64.69-25.39 65.59-25.39L65.59-25.39 68.54-25.39 69.13-27.71Q70.42-32.59 72.4-35.05 74.38-37.5 76.09-37.99L76.09-37.99Q77.63-38.45 78.73-38.21L78.73-38.21 81.78-37.4Q83.39-37.01 82.58-35.55L82.58-35.55 81.92-34.35Q81.58-33.64 80.19-34.11L80.19-34.11 76.99-35.21Q74.43-33.11 72.99-27.71L72.99-27.71 72.38-25.39 75.99-25.39Q77.04-25.39 76.72-24.29L76.72-24.29 76.38-23Q76.04-21.9 75.04-21.9L75.04-21.9 71.43-21.9 65.98-1.1Q65.69 0 64.54 0ZM74.94-7.25L74.94-7.25Q75.16-13.94 78.28-19.92 81.41-25.9 86.24-25.81L86.24-25.81Q88.76-25.66 90.15-23.29L90.15-23.29Q91.2-21.66 91-17.75L91-17.75Q90.81-10.35 86.95-4.05L86.95-4.05Q84.29 0.56 79.8 0.39L79.8 0.39Q78.21 0.34 76.84-1L76.84-1Q74.79-2.95 74.94-7.25ZM83.46-5.25L83.46-5.25Q86.85-10.6 87.05-17.21L87.05-17.21Q87.1-20.14 86.74-21.14 86.39-22.14 85.27-22.17 84.14-22.19 83.22-21.12 82.29-20.04 81.41-18.14L81.41-18.14Q79.19-13.7 78.99-7.74L78.99-7.74Q78.89-3.25 80.55-3.1L80.55-3.1Q81.99-3.05 83.46-5.25ZM103.87-36.79L103.87-36.79 94.76-1.1Q94.47 0 93.25 0L93.25 0 92.42 0Q90.56 0 90.95-1.61L90.95-1.61 100.11-36.84Q100.4-37.94 101.6-37.94L101.6-37.94 102.74-37.94Q104.16-37.94 103.87-36.79ZM109.21-33.01L109.21-33.01 109.67-33.01Q110.5-33.01 111.21-32.25 111.92-31.49 111.92-30.52 111.92-29.54 111.19-28.85 110.46-28.15 109.36-28.15L109.36-28.15 108.97-28.15Q108.11-28.15 107.44-28.87 106.77-29.59 106.77-30.57 106.77-31.54 107.47-32.28 108.16-33.01 109.21-33.01ZM110.11-24.34L110.11-24.34 104.06-1.1Q103.77 0 102.57 0L102.57 0 101.11 0Q99.71 0 100.01-1.15L100.01-1.15 106.11-24.39Q106.35-25.39 107.5-25.39L107.5-25.39 109.16-25.39Q109.82-25.39 110.04-25.17 110.26-24.95 110.11-24.34ZM110.45-7.25L110.45-7.25Q110.67-13.94 113.8-19.92 116.92-25.9 121.76-25.81L121.76-25.81Q124.27-25.66 125.66-23.29L125.66-23.29Q126.71-21.66 126.52-17.75L126.52-17.75Q126.32-10.35 122.47-4.05L122.47-4.05Q119.8 0.56 115.31 0.39L115.31 0.39Q113.73 0.34 112.36-1L112.36-1Q110.31-2.95 110.45-7.25ZM118.97-5.25L118.97-5.25Q122.37-10.6 122.56-17.21L122.56-17.21Q122.61-20.14 122.26-21.14 121.9-22.14 120.78-22.17 119.66-22.19 118.73-21.12 117.8-20.04 116.92-18.14L116.92-18.14Q114.7-13.7 114.51-7.74L114.51-7.74Q114.41-3.25 116.07-3.1L116.07-3.1Q117.51-3.05 118.97-5.25Z" fill="#ed2647" data-fill-palette-color="primary"></path></g></svg></g></svg></g></svg></g></svg></g><g><svg viewBox="0 0 217.3348666669272 217.3348666669272" height="217.3348666669272" width="217.3348666669272"><g><svg></svg></g><g id="icon-0"><svg viewBox="0 0 217.3348666669272 217.3348666669272" height="217.3348666669272" width="217.3348666669272"><g><path d="M0 108.667c0-60.015 48.652-108.667 108.667-108.667 60.015 0 108.667 48.652 108.668 108.667 0 60.015-48.652 108.667-108.668 108.668-60.015 0-108.667-48.652-108.667-108.668zM108.667 203.993c52.647 0 95.325-42.679 95.326-95.326 0-52.647-42.679-95.325-95.326-95.325-52.647 0-95.325 42.679-95.325 95.325 0 52.647 42.679 95.325 95.325 95.326z" data-fill-palette-color="accent" fill="#ca3433" stroke="transparent"></path></g><g transform="matrix(1,0,0,1,54.95625808686674,54.95625808686675)"><svg viewBox="0 0 107.42235049319373 107.42235049319372" height="107.42235049319372" width="107.42235049319373"><g><svg xmlns="http://www.w3.org/2000/svg" xmlns:xlink="http://www.w3.org/1999/xlink" version="1.1" x="0" y="0" viewBox="0.5 0.5 47 46.99999999999999" style="enable-background:new 0 0 48 48;" xml:space="preserve" height="107.42235049319372" width="107.42235049319373" class="icon-cg-0" data-fill-palette-color="accent" id="cg-0"><g fill="#ca3433" data-fill-palette-color="accent"><path d="M16.8 5.6c0-0.2 0.1-0.3 0.3-0.3h13.8c0.2 0 0.3 0.1 0.3 0.3v3.3H36V5.6c0-2.8-2.3-5.1-5.1-5.1H17.1c-2.8 0-5.1 2.3-5.1 5.1v3.3h4.8V5.6z" fill="#ca3433" data-fill-palette-color="accent"></path><path d="M45.1 12.7H2.9c-1.3 0-2.4 1.1-2.4 2.4v8h15.7c1.3 0 2.4 1.1 2.4 2.4 0 0.1 0 0.2 0 0.3 0 0.1 0 0.2 0 0.3 0 1 1.2 2.2 3 2.7v-0.1c0-1.3 1.1-2.4 2.4-2.4s2.4 1.1 2.4 2.4v0.1c1.8-0.5 3-1.7 3-2.7 0-0.1 0-0.2 0-0.3 0-0.1 0-0.2 0-0.3 0-1.3 1.1-2.4 2.4-2.4h15.7v-8C47.5 13.8 46.4 12.7 45.1 12.7z" fill="#ca3433" data-fill-palette-color="accent"></path><path d="M26.4 33.8v0.5c0 1.3-1.1 2.4-2.4 2.4s-2.4-1.1-2.4-2.4v-0.5c-3.8-0.7-6.7-2.9-7.6-5.8H0.5v17.1c0 1.3 1.1 2.4 2.4 2.4h42.2c1.3 0 2.4-1.1 2.4-2.4V28H34C33.1 30.9 30.2 33.1 26.4 33.8z" fill="#ca3433" data-fill-palette-color="accent"></path></g></svg></g></svg></g></svg></g></svg></g></svg></g><defs></defs></svg><rect width="395.52" height="125.91066878256653" fill="none" stroke="none" visibility="hidden"></rect></g></svg></g></svg>